<svg id="Calque_1" data-name="Calque 1" xmlns="http://www.w3.org/2000/svg" xmlns:xlink="http://www.w3.org/1999/xlink" viewBox="0 0 55.51 60.43">
  <defs>
    <style>
      .cls-1 {
        fill: #fff;
      }

      .cls-2 {
        fill: url(#Dégradé_sans_nom_107);
      }

      .cls-3 {
        fill: url(#Dégradé_sans_nom_107-2);
      }

      .cls-4 {
        fill: url(#Dégradé_sans_nom_107-3);
      }

      .cls-5 {
        fill: url(#Dégradé_sans_nom_107-4);
      }

      .cls-6 {
        fill: url(#Dégradé_sans_nom_107-5);
      }

      .cls-7 {
        fill: url(#Dégradé_sans_nom_107-6);
      }

      .cls-8 {
        fill: url(#Dégradé_sans_nom_107-7);
      }

      .cls-9 {
        fill: url(#Dégradé_sans_nom_107-8);
      }

      .cls-10 {
        fill: url(#Dégradé_sans_nom_22);
      }

      .cls-11 {
        fill: url(#Dégradé_sans_nom_107-9);
      }

      .cls-12 {
        fill: url(#Dégradé_sans_nom_107-10);
      }

      .cls-13 {
        fill: url(#Dégradé_sans_nom_107-11);
      }

      .cls-14 {
        fill: url(#Dégradé_sans_nom_107-12);
      }

      .cls-15 {
        fill: url(#Dégradé_sans_nom_107-13);
      }

      .cls-16 {
        fill: url(#Dégradé_sans_nom_107-14);
      }

      .cls-17 {
        fill: url(#Dégradé_sans_nom_107-15);
      }

      .cls-18 {
        fill: url(#Dégradé_sans_nom_107-16);
      }
    </style>
    <linearGradient id="Dégradé_sans_nom_107" data-name="Dégradé sans nom 107" x1="17.25" y1="26.88" x2="36.88" y2="26.88" gradientUnits="userSpaceOnUse">
      <stop offset="0" stop-color="#2a70f5"/>
      <stop offset="1" stop-color="#08cdea"/>
    </linearGradient>
    <linearGradient id="Dégradé_sans_nom_107-2" x1="17.25" y1="22.87" x2="36.88" y2="22.87" xlink:href="#Dégradé_sans_nom_107"/>
    <linearGradient id="Dégradé_sans_nom_107-3" x1="17.25" y1="18.86" x2="36.88" y2="18.86" xlink:href="#Dégradé_sans_nom_107"/>
    <linearGradient id="Dégradé_sans_nom_107-4" x1="27.33" y1="14.85" x2="36.88" y2="14.85" xlink:href="#Dégradé_sans_nom_107"/>
    <linearGradient id="Dégradé_sans_nom_107-5" x1="18.99" y1="12.8" x2="23.19" y2="12.8" xlink:href="#Dégradé_sans_nom_107"/>
    <linearGradient id="Dégradé_sans_nom_107-6" x1="18.59" y1="12.8" x2="23.6" y2="12.8" xlink:href="#Dégradé_sans_nom_107"/>
    <linearGradient id="Dégradé_sans_nom_107-7" x1="27.33" y1="10.84" x2="36.88" y2="10.84" xlink:href="#Dégradé_sans_nom_107"/>
    <linearGradient id="Dégradé_sans_nom_107-8" x1="17.5" y1="12.8" x2="24.68" y2="12.8" xlink:href="#Dégradé_sans_nom_107"/>
    <linearGradient id="Dégradé_sans_nom_22" data-name="Dégradé sans nom 22" x1="-3.82" y1="55.31" x2="27.44" y2="16.73" gradientUnits="userSpaceOnUse">
      <stop offset="0" stop-color="#bcbcbc"/>
      <stop offset="1" stop-color="#d8d8d8" stop-opacity="0"/>
    </linearGradient>
    <linearGradient id="Dégradé_sans_nom_107-9" x1="34.72" y1="4.22" x2="43.16" y2="4.22" xlink:href="#Dégradé_sans_nom_107"/>
    <linearGradient id="Dégradé_sans_nom_107-10" x1="13.31" y1="15.87" x2="41.24" y2="33.16" xlink:href="#Dégradé_sans_nom_107"/>
    <linearGradient id="Dégradé_sans_nom_107-11" x1="8.39" y1="23.82" x2="36.32" y2="41.11" xlink:href="#Dégradé_sans_nom_107"/>
    <linearGradient id="Dégradé_sans_nom_107-12" x1="21.08" y1="3.32" x2="49.01" y2="20.61" xlink:href="#Dégradé_sans_nom_107"/>
    <linearGradient id="Dégradé_sans_nom_107-13" x1="16.16" y1="11.27" x2="44.09" y2="28.56" xlink:href="#Dégradé_sans_nom_107"/>
    <linearGradient id="Dégradé_sans_nom_107-14" x1="20.59" y1="15.86" x2="33.56" y2="15.86" xlink:href="#Dégradé_sans_nom_107"/>
    <linearGradient id="Dégradé_sans_nom_107-15" x1="20.59" y1="20.95" x2="33.56" y2="20.95" xlink:href="#Dégradé_sans_nom_107"/>
    <linearGradient id="Dégradé_sans_nom_107-16" x1="20.59" y1="26.16" x2="28.51" y2="26.16" xlink:href="#Dégradé_sans_nom_107"/>
  </defs>
  <title>T-KEIR_logo_FIN</title>
  <g>
    <path class="cls-1" d="M52.12,52.58a3.82,3.82,0,0,1,.68.07,2.39,2.39,0,0,1,1.75,1.44,3.24,3.24,0,0,1-.21,2.52,5.46,5.46,0,0,1-2.22,2.33,4.26,4.26,0,0,1-2.92.53A2.37,2.37,0,0,1,47.44,58a3.24,3.24,0,0,1,.21-2.52,5.51,5.51,0,0,1,2.23-2.34,4.6,4.6,0,0,1,2.24-.6M0,32.85C2.2,41.7,13.67,48.18,27.11,48.19a39.35,39.35,0,0,0,8.31-.86l11.1,11.18c.3.3.61.67.86,1a3,3,0,0,0,1.13.72,4.7,4.7,0,0,0,3.91-.48c2.36-1.31,3.64-4,2.86-6a3.43,3.43,0,0,0-.56-.92l-.14-.13c-.08-.08-.16-.14-.24-.21l-9.62-8.49c4.91-2.73,8.39-6.59,9.51-11.06-2.22,5.42-7.89,9.74-15.17,12l.19.18.94.91,7.89,7.57a6,6,0,0,0-1.3,2l-9.07-8.82L36.87,46l-.37-.36a40.87,40.87,0,0,1-9.39,1.08C14.43,46.67,3.34,41,0,32.85ZM9.76,16.58c-5.51,3.18-9,7.86-9,13a12.61,12.61,0,0,0,.11,1.5,6.18,6.18,0,0,0,.6,2.05C5,40.5,15.34,45.52,27.07,45.53s22.07-5.07,25.61-12.4a5.63,5.63,0,0,0,.44-1.29,11.93,11.93,0,0,0,.22-2.22c0-5.17-3.46-9.85-9-13v1.65a11,11,0,0,1,3.8,8,11,11,0,0,1-4.09,8.24l-.26.23C40,38,33.89,40.14,27.07,40.14S14.15,38,10.32,34.68L10,34.43A11,11,0,0,1,6,26.2a11,11,0,0,1,3.79-8Z"/>
    <path class="cls-2" d="M18,26.16H36.16a.72.72,0,0,1,.72.72.73.73,0,0,1-.72.73H18a.73.73,0,0,1-.72-.73.72.72,0,0,1,.72-.72"/>
    <path class="cls-3" d="M18,22.15H36.16a.72.72,0,0,1,.72.72.73.73,0,0,1-.72.73H18a.73.73,0,0,1-.72-.73A.72.72,0,0,1,18,22.15Z"/>
    <path class="cls-4" d="M18,18.14H36.16a.72.72,0,1,1,0,1.44H18a.72.72,0,0,1,0-1.44Z"/>
    <path class="cls-5" d="M28.05,14.12h8.11a.73.73,0,0,1,.72.73.72.72,0,0,1-.72.72H28.05a.72.72,0,0,1-.72-.72A.73.73,0,0,1,28.05,14.12Z"/>
    <path class="cls-6" d="M22.83,11.21a.21.21,0,0,1,.08,0,.36.36,0,0,1,.18.6l-2.45,2.48a.35.35,0,0,1-.48,0l-1.05-.91a.35.35,0,0,1,.46-.53l.79.69,2.23-2.25a.51.51,0,0,1,.16-.09Z"/>
    <rect class="cls-7" x="18.59" y="10.29" width="5.01" height="5.01"/>
    <path class="cls-8" d="M28.05,10.11h8.11a.73.73,0,0,1,.72.73.72.72,0,0,1-.72.72H28.05a.72.72,0,0,1-.72-.72A.73.73,0,0,1,28.05,10.11Z"/>
    <path class="cls-9" d="M18.15,9.21H24a.64.64,0,0,1,.64.64v5.9a.64.64,0,0,1-.64.64H18.15a.65.65,0,0,1-.65-.64V9.85A.65.65,0,0,1,18.15,9.21Z"/>
    <path class="cls-1" d="M34.72,0H12.14A1.16,1.16,0,0,0,11,1.16V33.64A18.27,18.27,0,0,0,12.82,35a26.28,26.28,0,0,0,14.25,3.87A26.28,26.28,0,0,0,41.32,35a19.3,19.3,0,0,0,1.84-1.4V8.43Z"/>
    <path class="cls-10" d="M34.72,0H12.14A1.16,1.16,0,0,0,11,1.16V33.64A18.27,18.27,0,0,0,12.82,35a26.28,26.28,0,0,0,14.25,3.87A26.28,26.28,0,0,0,41.32,35a19.3,19.3,0,0,0,1.84-1.4V8.43Z"/>
    <path class="cls-11" d="M43.16,8.43,34.72,0V6a2.41,2.41,0,0,0,2.42,2.41h6"/>
    <g>
      <path class="cls-12" d="M36.62,29.41a1.37,1.37,0,0,1-1.37,1.37H32.11v2h3.14a3.41,3.41,0,0,0,3.41-3.41V26.26h-2Z"/>
      <path class="cls-13" d="M17.42,29.41V26.26h-2v3.15a3.41,3.41,0,0,0,3.41,3.41h3.15v-2H18.79A1.38,1.38,0,0,1,17.42,29.41Z"/>
      <path class="cls-14" d="M35.25,9.54H32.11v2h3.14A1.37,1.37,0,0,1,36.62,13v3.14h2V13A3.41,3.41,0,0,0,35.25,9.54Z"/>
      <path class="cls-15" d="M17.42,13a1.38,1.38,0,0,1,1.37-1.38h3.15v-2H18.79A3.41,3.41,0,0,0,15.38,13v3.14h2Z"/>
    </g>
    <rect class="cls-16" x="20.59" y="14.86" width="12.97" height="2" rx="1"/>
    <rect class="cls-17" x="20.59" y="19.95" width="12.97" height="2" rx="1"/>
    <rect class="cls-18" x="20.59" y="25.16" width="7.92" height="2" rx="1"/>
  </g>
</svg>
